<?xml version="1.0" encoding="utf-8"?>
<!-- Generator: Adobe Illustrator 23.0.1, SVG Export Plug-In . SVG Version: 6.00 Build 0)  -->
<svg version="1.1" id="Warstwa_1" xmlns="http://www.w3.org/2000/svg" xmlns:xlink="http://www.w3.org/1999/xlink" x="0px" y="0px"
	 viewBox="0 0 302 100" style="enable-background:new 0 0 302 100;" xml:space="preserve">
<style type="text/css">
	.st0{fill-rule:evenodd;clip-rule:evenodd;fill:#FFFFFF;}
	.st1{fill:#FFFFFF;}
	.st2{fill:none;stroke:#FFFFFF;stroke-width:1.0023;stroke-miterlimit:22.9256;}
</style>
<g>
	<path class="st0" d="M0.1,18.5C15.3,7.4,40.2,0.2,68.5,0h1.7c46.5,0.2,84.1,19.5,84.1,43.3c0,15.8-15.3,29.6-40.1,37.1
		c19.5-7.6,30.7-19.4,30.7-32.6c0-23-37.9-41.7-84.7-41.7C36.8,6.1,15.5,10.8,0.1,18.5"/>
	<path class="st0" d="M139.2,57.2V43.4c0-3.2-0.9-5.6-2.8-7.3c-1.8-1.6-4-2.4-6.8-2.4c-3,0-5.2,1.2-6.6,3.6c-1.8-2.4-4.1-3.6-7-3.6
		c-3.4,0-6,0.9-7.7,2.8c-1.7,1.9-2.6,4.4-2.6,7.6V53c0,1.3,0.4,2.3,1.2,3.1c0.8,0.8,1.8,1.1,3,1.1h1.5V43.6c0-1.5,0.4-2.7,1.1-3.6
		c0.8-0.9,1.7-1.3,2.8-1.3c2.9,0,4.3,1.8,4.3,5.4V53c0,1.4,0.4,2.4,1.1,3.1c0.8,0.7,1.8,1.1,3.1,1.1h1.5V43.5c0-1.6,0.3-2.7,1-3.5
		c0.7-0.9,1.7-1.2,2.9-1.2c2.8,0,4.2,1.8,4.2,5.4V53c0,2.8,1.5,4.2,4.4,4.2H139.2z"/>
	<path class="st0" d="M179.2,42.6c0-2.7-0.9-4.8-2.8-6.5c-1.8-1.6-3.9-2.4-6.4-2.4c-3.4,0-6.1,1.2-8.2,3.4c-2.1,2.3-3.1,5.3-3.1,9.1
		c0,3.4,1.2,6.2,3.5,8.4c2.2,2.1,4.8,3.2,7.8,3.2c5.6,0,8.3-1.8,8.3-5.2v-1.8h-0.2c-1.6,1.5-3.9,2.2-7.1,2.2c-1.7,0-3.2-0.4-4.4-1.3
		c-1.2-0.9-1.9-2.1-2.1-3.5h3.8c3.9,0,6.7-0.4,8.3-1.2C178.4,46.1,179.2,44.6,179.2,42.6 M173.8,41.9c0,0.9-0.4,1.4-1.3,1.7
		c-0.9,0.3-2.7,0.5-5.4,0.5h-2.6l0-0.8c0.1-1.4,0.6-2.5,1.5-3.5c0.9-1,2.1-1.5,3.4-1.5C172.4,38.4,173.8,39.6,173.8,41.9z"/>
	<path class="st0" d="M195.3,54v-1.2h-1.5c-1.4,0-2.4-0.2-3-0.6c-0.6-0.5-0.9-1.3-0.9-2.4V30.3c0-2.6-1.4-3.9-4.1-3.9h-1.6v23.8
		c0,4.8,2.4,7.2,7.3,7.2C194,57.4,195.3,56.3,195.3,54"/>
	<path class="st0" d="M218.4,42.6c0-2.7-0.9-4.8-2.8-6.5c-1.8-1.6-3.9-2.4-6.4-2.4c-3.4,0-6.1,1.2-8.2,3.4c-2.1,2.3-3.1,5.3-3.1,9.1
		c0,3.4,1.2,6.2,3.5,8.4c2.2,2.1,4.8,3.2,7.8,3.2c5.6,0,8.3-1.8,8.3-5.2v-1.8h-0.2c-1.6,1.5-3.9,2.2-7.1,2.2c-1.7,0-3.2-0.4-4.4-1.3
		c-1.2-0.9-1.9-2.1-2.1-3.5h3.8c3.9,0,6.7-0.4,8.3-1.2C217.6,46.1,218.4,44.6,218.4,42.6 M213.1,41.9c0,0.9-0.4,1.4-1.3,1.7
		c-0.9,0.3-2.7,0.5-5.4,0.5h-2.6l0-0.8c0.1-1.4,0.6-2.5,1.5-3.5c0.9-1,2.1-1.5,3.4-1.5C211.6,38.4,213.1,39.6,213.1,41.9z"/>
	<path class="st0" d="M241.7,41.6v-2.7c0-1.4-0.6-2.6-1.8-3.5c-1.2-1-2.7-1.5-4.5-1.5c-3.8,0-6.8,1.2-9.1,3.6
		c-2.2,2.3-3.3,5.2-3.3,8.6c0,3.2,1.2,6,3.5,8.2c2.3,2.2,5,3.3,8.2,3.3c2.1,0,3.7-0.5,5-1.3c1.3-0.9,1.9-2.1,1.9-3.5v-2.7h-0.2
		c-1.1,1.5-3.1,2.1-6.1,2.1c-2,0-3.5-0.6-4.7-1.9c-1.2-1.3-1.7-3-1.7-5.1c0-1.7,0.6-3.1,1.9-4.3c1.3-1.2,2.7-1.8,4.4-1.8
		c3.2,0,5.3,0.8,6.2,2.4H241.7z"/>
	<path class="st0" d="M63.8,41.7c0-2.3-0.8-4.1-2.4-5.4c-1.5-1.3-3.5-1.9-5.9-1.9H53c-1.8,0-4,0.3-6.7,0.9v18c0,1.3,0.4,2.2,1.1,2.9
		c0.7,0.6,1.4,0.9,2.3,0.9h2.8v-7.8c0.7,0.2,1.7,0.3,2.9,0.3c2.4,0,4.4-0.8,6-2.2C63,45.9,63.8,44,63.8,41.7 M57.6,42.2
		c0,1.7-0.9,2.5-2.8,2.5c-1,0-1.8-0.1-2.3-0.3v-5c0.5-0.1,0.9-0.2,1.2-0.2h1.2C56.7,39.2,57.6,40.2,57.6,42.2z"/>
	<path class="st0" d="M83.8,54.2V52H73.4c1.1-1.3,1.9-2.3,2.5-3l5.2-5.9c0.9-1.1,1.5-2,1.9-2.8c0.3-0.7,0.4-1.5,0.4-2.4
		c0-0.9-0.4-1.7-1-2.2c-0.7-0.6-1.6-0.8-2.7-0.8H69.4c-2.7,0-4,1.1-4,3.4V40h10.2c-0.5,0.8-1,1.6-1.6,2.2L68.7,48
		c-1.4,1.5-2.3,2.7-2.8,3.6c-0.4,0.8-0.6,1.6-0.6,2.5c0,0.9,0.4,1.7,1.1,2.2c0.6,0.5,1.2,0.8,1.8,0.8h12.4c1,0,1.7-0.3,2.3-0.8
		C83.5,55.7,83.8,55,83.8,54.2"/>
	<path class="st0" d="M103,53.7v-2.1h-0.2c-1.1,0.5-2.7,0.7-4.8,0.7h-1c-1.4,0-2.3-0.3-2.8-0.8c-0.5-0.5-0.7-1.6-0.7-3v-9.9
		c0-2.5-1.2-3.8-3.6-3.8h-2.6v14.2c0,2.9,0.7,5,2,6.4c1.3,1.4,3.4,2.1,6.2,2.1h2.6C101.4,57.4,103,56.2,103,53.7"/>
	<path class="st0" d="M146.2,15.4c0-2.1,1.7-3.9,3.9-3.9c2.1,0,3.9,1.7,3.9,3.9c0,2.1-1.7,3.9-3.9,3.9
		C148,19.3,146.2,17.5,146.2,15.4"/>
	<path class="st1" d="M56.4,97.2h-2.1L53.4,95h-3.8l-0.8,2.2h-2.1l3.7-9.6h2L56.4,97.2z M52.8,93.4l-1.3-3.6l-1.3,3.6H52.8z"/>
	<path class="st1" d="M60.1,94.1l1.9-0.2c0.1,0.6,0.3,1.1,0.7,1.4c0.3,0.3,0.8,0.4,1.4,0.4c0.6,0,1.1-0.1,1.4-0.4
		c0.3-0.3,0.5-0.6,0.5-0.9c0-0.2-0.1-0.4-0.2-0.6c-0.1-0.2-0.4-0.3-0.7-0.4c-0.2-0.1-0.7-0.2-1.5-0.4c-1-0.3-1.8-0.6-2.2-1
		c-0.6-0.5-0.9-1.2-0.9-1.9c0-0.5,0.1-0.9,0.4-1.4c0.3-0.4,0.7-0.7,1.2-1c0.5-0.2,1.2-0.3,1.9-0.3c1.2,0,2.1,0.3,2.7,0.8
		c0.6,0.5,0.9,1.2,1,2.1l-1.9,0.1c-0.1-0.5-0.3-0.8-0.5-1.1C64.9,89.1,64.5,89,64,89c-0.6,0-1,0.1-1.3,0.3c-0.2,0.1-0.3,0.3-0.3,0.6
		c0,0.2,0.1,0.4,0.3,0.6c0.2,0.2,0.8,0.4,1.8,0.6c0.9,0.2,1.6,0.5,2.1,0.7c0.4,0.2,0.8,0.6,1.1,1c0.3,0.4,0.4,0.9,0.4,1.5
		c0,0.5-0.2,1.1-0.5,1.5c-0.3,0.5-0.7,0.8-1.3,1.1c-0.6,0.2-1.3,0.3-2.1,0.3c-1.2,0-2.1-0.3-2.8-0.8C60.7,95.9,60.3,95.1,60.1,94.1"
		/>
	<path class="st1" d="M69.6,87.6h1.8v1.7h-1.8V87.6z M69.6,90.2h1.8v6.9h-1.8V90.2z"/>
	<polygon class="st1" points="73.2,97.2 73.2,87.6 75,87.6 75,92.7 77.2,90.2 79.5,90.2 77.1,92.8 79.6,97.2 77.7,97.2 75.9,94.1 
		75,95 75,97.2 	"/>
	<path class="st1" d="M80.3,93.6c0-0.6,0.1-1.2,0.5-1.8c0.3-0.6,0.7-1,1.3-1.3c0.6-0.3,1.2-0.4,1.8-0.4c1.1,0,1.9,0.3,2.6,1
		c0.7,0.7,1,1.5,1,2.6c0,1.1-0.3,1.9-1,2.6c-0.7,0.7-1.5,1-2.6,1c-0.6,0-1.2-0.1-1.8-0.4c-0.6-0.3-1-0.7-1.3-1.3
		C80.5,95.1,80.3,94.4,80.3,93.6 M82.2,93.7c0,0.7,0.2,1.2,0.5,1.6c0.3,0.4,0.7,0.5,1.2,0.5c0.5,0,0.9-0.2,1.2-0.5
		c0.3-0.4,0.5-0.9,0.5-1.6c0-0.7-0.2-1.2-0.5-1.6c-0.3-0.4-0.7-0.5-1.2-0.5c-0.5,0-0.9,0.2-1.2,0.5C82.4,92.5,82.2,93,82.2,93.7z"/>
	<path class="st1" d="M90.7,97.2h-1.8v-6.9h1.7v1c0.3-0.5,0.6-0.8,0.8-0.9c0.2-0.1,0.5-0.2,0.8-0.2c0.4,0,0.8,0.1,1.2,0.3L92.8,92
		c-0.3-0.2-0.6-0.3-0.9-0.3c-0.3,0-0.5,0.1-0.7,0.2c-0.2,0.1-0.3,0.4-0.4,0.8c-0.1,0.4-0.2,1.1-0.2,2.3V97.2z"/>
	<path class="st1" d="M93.5,95.2l1.8-0.3c0.1,0.4,0.2,0.6,0.5,0.8c0.2,0.2,0.6,0.3,1,0.3c0.5,0,0.8-0.1,1.1-0.3
		c0.2-0.1,0.2-0.3,0.2-0.5c0-0.1,0-0.3-0.1-0.3c-0.1-0.1-0.3-0.2-0.6-0.2c-1.5-0.3-2.4-0.6-2.8-0.9c-0.5-0.4-0.8-0.9-0.8-1.6
		c0-0.6,0.2-1.1,0.7-1.5c0.5-0.4,1.2-0.6,2.2-0.6c1,0,1.7,0.2,2.1,0.5c0.5,0.3,0.8,0.8,1,1.4L98,92.2c-0.1-0.3-0.2-0.5-0.4-0.6
		c-0.2-0.1-0.5-0.2-0.9-0.2c-0.5,0-0.8,0.1-1,0.2c-0.1,0.1-0.2,0.2-0.2,0.4c0,0.1,0.1,0.2,0.2,0.3c0.2,0.1,0.7,0.3,1.7,0.5
		c1,0.2,1.7,0.5,2.1,0.8c0.4,0.3,0.6,0.8,0.6,1.4c0,0.6-0.3,1.2-0.8,1.6c-0.5,0.5-1.3,0.7-2.4,0.7c-0.9,0-1.7-0.2-2.2-0.6
		C94,96.4,93.7,95.9,93.5,95.2"/>
	<polygon class="st1" points="101.5,97.2 101.5,87.6 103.4,87.6 103.4,92.7 105.5,90.2 107.8,90.2 105.4,92.8 107.9,97.2 106,97.2 
		104.2,94.1 103.4,95 103.4,97.2 	"/>
	<path class="st1" d="M108.2,90.2h2l1.7,4.9l1.6-4.9h1.9l-2.5,6.7l-0.4,1.2c-0.2,0.4-0.3,0.7-0.5,0.9c-0.1,0.2-0.3,0.4-0.5,0.5
		c-0.2,0.1-0.4,0.2-0.7,0.3c-0.3,0.1-0.6,0.1-0.9,0.1c-0.4,0-0.7,0-1-0.1l-0.2-1.4c0.3,0.1,0.5,0.1,0.8,0.1c0.4,0,0.7-0.1,1-0.4
		c0.2-0.3,0.4-0.6,0.5-1L108.2,90.2z"/>
	<path class="st1" d="M126.4,93.7l1.9,0.6c-0.3,1-0.8,1.8-1.4,2.3c-0.7,0.5-1.5,0.8-2.6,0.8c-1.3,0-2.3-0.4-3.1-1.3
		c-0.8-0.9-1.2-2.1-1.2-3.6c0-1.6,0.4-2.8,1.2-3.7c0.8-0.9,1.9-1.3,3.3-1.3c1.2,0,2.1,0.3,2.9,1c0.4,0.4,0.8,1,1,1.8l-1.9,0.5
		c-0.1-0.5-0.4-0.9-0.7-1.2c-0.4-0.3-0.8-0.4-1.3-0.4c-0.7,0-1.3,0.3-1.7,0.8c-0.4,0.5-0.7,1.3-0.7,2.5c0,1.2,0.2,2.1,0.7,2.6
		c0.4,0.5,1,0.8,1.7,0.8c0.5,0,1-0.2,1.3-0.5C125.9,94.9,126.2,94.4,126.4,93.7"/>
	<path class="st1" d="M129.5,93.6c0-0.6,0.1-1.2,0.5-1.8c0.3-0.6,0.7-1,1.3-1.3c0.6-0.3,1.2-0.4,1.8-0.4c1.1,0,1.9,0.3,2.6,1
		c0.7,0.7,1,1.5,1,2.6c0,1.1-0.3,1.9-1,2.6c-0.7,0.7-1.5,1-2.6,1c-0.6,0-1.2-0.1-1.8-0.4c-0.6-0.3-1-0.7-1.3-1.3
		C129.6,95.1,129.5,94.4,129.5,93.6 M131.3,93.7c0,0.7,0.2,1.2,0.5,1.6c0.3,0.4,0.7,0.5,1.2,0.5c0.5,0,0.9-0.2,1.2-0.5
		c0.3-0.4,0.5-0.9,0.5-1.6c0-0.7-0.2-1.2-0.5-1.6c-0.3-0.4-0.7-0.5-1.2-0.5c-0.5,0-0.9,0.2-1.2,0.5C131.5,92.5,131.3,93,131.3,93.7z
		"/>
	<path class="st1" d="M137.9,90.2h1.7v0.9c0.6-0.7,1.3-1.1,2.2-1.1c0.4,0,0.8,0.1,1.2,0.3c0.3,0.2,0.6,0.5,0.8,0.8
		c0.3-0.4,0.6-0.6,1-0.8c0.4-0.2,0.7-0.3,1.1-0.3c0.5,0,0.9,0.1,1.3,0.3c0.4,0.2,0.6,0.5,0.8,0.9c0.1,0.3,0.2,0.8,0.2,1.4v4.4h-1.8
		v-4c0-0.7-0.1-1.1-0.2-1.3c-0.2-0.3-0.4-0.4-0.8-0.4c-0.3,0-0.5,0.1-0.7,0.2c-0.2,0.2-0.4,0.4-0.5,0.7c-0.1,0.3-0.1,0.8-0.1,1.4
		v3.3h-1.8v-3.8c0-0.7,0-1.1-0.1-1.3c-0.1-0.2-0.2-0.3-0.3-0.4c-0.1-0.1-0.3-0.1-0.6-0.1c-0.3,0-0.5,0.1-0.8,0.2
		c-0.2,0.2-0.4,0.4-0.5,0.7c-0.1,0.3-0.1,0.8-0.1,1.4v3.4h-1.8V90.2z"/>
	<path class="st1" d="M149.9,90.2h1.7v1c0.2-0.3,0.5-0.6,0.9-0.9c0.4-0.2,0.8-0.3,1.3-0.3c0.8,0,1.5,0.3,2.1,1
		c0.6,0.6,0.8,1.5,0.8,2.6c0,1.2-0.3,2.1-0.9,2.7c-0.6,0.6-1.3,1-2.1,1c-0.4,0-0.7-0.1-1-0.2c-0.3-0.2-0.6-0.4-1-0.8v3.5h-1.8V90.2z
		 M151.8,93.6c0,0.8,0.2,1.4,0.5,1.7c0.3,0.4,0.7,0.6,1.1,0.6c0.4,0,0.8-0.2,1.1-0.5c0.3-0.3,0.4-0.9,0.4-1.7c0-0.7-0.1-1.3-0.4-1.6
		c-0.3-0.4-0.7-0.5-1.1-0.5c-0.4,0-0.8,0.2-1.1,0.5C151.9,92.4,151.8,92.9,151.8,93.6z"/>
	<path class="st1" d="M159.5,92.3l-1.7-0.3c0.2-0.7,0.5-1.2,1-1.5c0.5-0.3,1.1-0.5,2-0.5c0.8,0,1.4,0.1,1.8,0.3
		c0.4,0.2,0.7,0.4,0.8,0.7c0.2,0.3,0.2,0.8,0.2,1.6l0,2.1c0,0.6,0,1.1,0.1,1.3c0.1,0.3,0.2,0.6,0.3,0.9h-1.8c0-0.1-0.1-0.3-0.2-0.5
		c0-0.1-0.1-0.2-0.1-0.2c-0.3,0.3-0.6,0.5-1,0.7c-0.4,0.2-0.7,0.2-1.1,0.2c-0.7,0-1.3-0.2-1.7-0.6c-0.4-0.4-0.6-0.9-0.6-1.5
		c0-0.4,0.1-0.7,0.3-1.1c0.2-0.3,0.5-0.5,0.8-0.7c0.3-0.2,0.8-0.3,1.5-0.4c0.9-0.2,1.5-0.3,1.8-0.5v-0.2c0-0.4-0.1-0.6-0.3-0.8
		c-0.2-0.1-0.5-0.2-1-0.2c-0.3,0-0.6,0.1-0.8,0.2C159.8,91.8,159.7,92,159.5,92.3 M162,93.8c-0.2,0.1-0.6,0.2-1.1,0.3
		c-0.5,0.1-0.8,0.2-1,0.3c-0.2,0.2-0.4,0.4-0.4,0.6c0,0.3,0.1,0.5,0.3,0.7c0.2,0.2,0.4,0.3,0.7,0.3c0.3,0,0.6-0.1,0.9-0.3
		c0.2-0.2,0.4-0.4,0.4-0.6c0-0.2,0.1-0.5,0.1-0.9V93.8z"/>
	<path class="st1" d="M171.9,97.2h-1.8v-3.5c0-0.7,0-1.2-0.1-1.5c-0.1-0.2-0.2-0.4-0.4-0.5c-0.2-0.1-0.4-0.2-0.6-0.2
		c-0.3,0-0.6,0.1-0.9,0.3c-0.3,0.2-0.4,0.4-0.5,0.7c-0.1,0.3-0.1,0.8-0.1,1.6v3.1h-1.8v-6.9h1.7v1c0.6-0.8,1.4-1.2,2.3-1.2
		c0.4,0,0.8,0.1,1.1,0.2c0.3,0.1,0.6,0.3,0.8,0.6c0.2,0.2,0.3,0.5,0.4,0.8c0.1,0.3,0.1,0.7,0.1,1.2V97.2z"/>
	<path class="st1" d="M172.9,90.2h2l1.7,4.9l1.6-4.9h1.9l-2.5,6.7l-0.4,1.2c-0.2,0.4-0.3,0.7-0.5,0.9c-0.1,0.2-0.3,0.4-0.5,0.5
		c-0.2,0.1-0.4,0.2-0.7,0.3c-0.3,0.1-0.6,0.1-0.9,0.1c-0.4,0-0.7,0-1-0.1l-0.2-1.4c0.3,0.1,0.5,0.1,0.8,0.1c0.4,0,0.7-0.1,1-0.4
		c0.2-0.3,0.4-0.6,0.5-1L172.9,90.2z"/>
	<line class="st2" x1="47.9" y1="82.3" x2="301.9" y2="82.3"/>
</g>
</svg>
